HIERARCHY
ROOT Hips
{
	OFFSET 0.000000 0.000000 0.000000 
	CHANNELS 6 Xposition Yposition Zposition Yrotation Zrotation Xrotation 
	JOINT Lumbar
	{
		OFFSET 0.000000 0.000000 0.000000 
		CHANNELS 3 Zrotation Xrotation Yrotation
		JOINT Neck
		{
			OFFSET 0.000000 0.445665 0.000000 
			CHANNELS 3 Zrotation Xrotation Yrotation
			End Site
			{
				OFFSET 0.000000 0.227535 0.000000 
			}
		}
		JOINT RightShoulder
		{
			OFFSET 0.019635 0.377685 0.194865 
			CHANNELS 3 Zrotation Xrotation Yrotation
			JOINT RightElbow
			{
				OFFSET 0.000000 -0.243375 0.000000 
				CHANNELS 2 Zrotation Yrotation
				JOINT RightWrist
				{
					OFFSET 0.000000 -0.264825 0.000000 
					CHANNELS 2 Zrotation Xrotation
					End Site
					{
						OFFSET 0.006600 -0.176220 0.000990 
					}
				}
			}
		}
		JOINT LeftShoulder
		{
			OFFSET 0.019635 0.377685 -0.194865 
			CHANNELS 3 Zrotation Xrotation Yrotation
			JOINT LeftElbow
			{
				OFFSET 0.000000 -0.243375 0.000000 
				CHANNELS 2 Zrotation Yrotation
				JOINT LeftWrist
				{
					OFFSET 0.000000 -0.264825 0.000000 
					CHANNELS 2 Zrotation Xrotation
					End Site
					{
						OFFSET 0.006600 -0.176220 -0.000990 
					}
				}
			}
		}
	}
	JOINT RightHip
	{
		OFFSET 0.052140 -0.069960 0.075570 
		CHANNELS 3 Zrotation Xrotation Yrotation
		JOINT RightKnee
		{
			OFFSET 0.000000 -0.402270 0.000000 
			CHANNELS 1 Zrotation
			JOINT RightAnkle
			{
				OFFSET 0.000000 -0.404085 0.000000 
				CHANNELS 3 Zrotation Xrotation Yrotation
				End Site
				{
					OFFSET 0.204105 -0.089430 0.008415 
				}
			}
		}
	}
	JOINT LeftHip
	{
		OFFSET 0.052140 -0.069960 -0.075570 
		CHANNELS 3 Zrotation Xrotation Yrotation
		JOINT LeftKnee
		{
			OFFSET 0.000000 -0.402270 0.000000 
			CHANNELS 1 Zrotation
			JOINT LeftAnkle
			{
				OFFSET 0.000000 -0.404085 0.000000 
				CHANNELS 3 Zrotation Xrotation Yrotation
				End Site
				{
					OFFSET 0.204105 -0.089430 -0.008415 
				}
			}
		}
	}
}
MOTION
Frames: 19
Frame Time: 0.02
-0.00133 -0.00024 -0.00172 -81.50743 -28.98502 -1.76969 42.25188 -1.53796 -10.491 -16.34791 5.63047 -0.40086 -25.02162 -8.06264 -13.85131 30.41693 99.45014 9.63996 1.28315 -24.29913 11.91216 9.35781 40.30273 -108.39284 15.33718 -1.83337 30.86137 -4.65335 -4.23943 -20.72377 -6.87252 -4.76351 -3.1968 33.91809 5.05365 0.22075 -25.67656 -6.98674 4.19597 2.87745
-0.00208 -0.00028 -0.00052 -81.70806 -28.97356 -1.80442 42.33802 -1.49845 -10.43696 -16.3471 5.67735 -0.40124 -24.93297 -8.08716 -13.76045 30.53187 99.41129 9.62915 1.28277 -24.48347 11.85253 9.23577 40.28479 -108.48069 15.4169 -1.8326 30.77426 -4.61895 -4.42422 -20.69234 -6.84052 -4.72974 -3.17371 33.77633 5.19787 0.65507 -25.6298 -6.97631 4.17891 2.86616
-0.00283 -0.00032 0.00068 -81.90826 -28.96217 -1.83909 42.42396 -1.45906 -10.38312 -16.34627 5.72415 -0.40162 -24.84446 -8.11157 -13.6698 30.6465 99.37273 9.61838 1.28245 -24.66764 11.79304 9.11396 40.26681 -108.56808 15.49632 -1.8318 30.68739 -4.58446 -4.60795 -20.66098 -6.80864 -4.69611 -3.15072 33.63495 5.34163 1.08761 -25.58316 -6.96594 4.16195 2.85495
-0.00358 -0.00035 0.00188 -82.1083 -28.95075 -1.87372 42.50985 -1.41967 -10.32926 -16.34545 5.77089 -0.402 -24.75606 -8.13604 -13.5791 30.76109 99.33368 9.60751 1.28203 -24.85147 11.73353 8.99242 40.24892 -108.65585 15.57587 -1.83107 30.60055 -4.55013 -4.79208 -20.62964 -6.77675 -4.66245 -3.12771 33.49362 5.48539 1.52052 -25.53655 -6.95554 4.14495 2.84371
-0.00433 -0.00039 0.00308 -82.3087 -28.93925 -1.90838 42.59591 -1.38018 -10.2752 -16.34466 5.81768 -0.40238 -24.66757 -8.16055 -13.48851 30.87599 99.29524 9.59682 1.28168 -25.03535 11.67406 8.87029 40.23108 -108.74354 15.65551 -1.8303 30.51346 -4.51597 -4.97748 -20.59823 -6.74474 -4.62863 -3.10459 33.35194 5.62962 1.95537 -25.4898 -6.94507 4.12782 2.83238
-0.00508 -0.00043 0.00428 -82.50846 -28.92807 -1.94305 42.68159 -1.34099 -10.22181 -16.34374 5.86449 -0.40275 -24.57901 -8.1847 -13.39794 30.99003 99.25695 9.58605 1.2815 -25.22011 11.61459 8.74896 40.21281 -108.82995 15.73432 -1.8294 30.42705 -4.48083 -5.15772 -20.56698 -6.71314 -4.59539 -3.08186 33.21119 5.77239 2.38306 -25.44341 -6.9349 4.11122 2.8214
-0.00583 -0.00047 0.00548 -82.70927 -28.91626 -1.97769 42.76793 -1.30124 -10.16714 -16.34308 5.91123 -0.40313 -24.49071 -8.20977 -13.30662 31.10565 99.21588 9.57479 1.28059 -25.40287 11.55482 8.62721 40.19547 -108.92044 15.81535 -1.829 30.33938 -4.44764 -5.34802 -20.53545 -6.68076 -4.56105 -3.05839 33.06874 5.91792 2.82461 -25.39637 -6.92415 4.09357 2.80974
-0.00658 -0.0005 0.00668 -82.90914 -28.90504 -2.01233 42.85368 -1.262 -10.11363 -16.34219 5.95799 -0.40351 -24.40212 -8.23359 -13.21745 31.21986 99.18197 9.56521 1.28105 -25.58752 11.49601 8.50393 40.17719 -109.00424 15.89315 -1.82767 30.25287 -4.41274 -5.52929 -20.50418 -6.64908 -4.52769 -3.03559 32.92783 6.06091 3.25351 -25.34991 -6.91394 4.07689 2.7987
-0.00733 -0.00054 0.00788 -83.10787 -28.8945 -2.04708 42.93868 -1.22339 -10.06162 -16.34096 6.00499 -0.40389 -24.31332 -8.25748 -13.12508 31.33222 99.1386 9.55279 1.28044 -25.77442 11.43563 8.3863 40.15805 -109.0915 15.97173 -1.82706 30.16776 -4.37538 -5.69854 -20.47318 -6.61832 -4.49562 -3.01366 32.78886 6.20086 3.66653 -25.3042 -6.90437 4.06139 2.78846
-0.00807 -0.00058 0.00909 -83.31321 -28.87995 -2.08154 43.02794 -1.18117 -10.0012 -16.34151 6.05127 -0.40428 -24.22614 -8.28577 -13.03362 31.45485 99.0949 9.542 1.27772 -25.94822 11.37603 8.25877 40.14474 -109.19381 16.06002 -1.8279 30.07453 -4.35105 -5.93397 -20.44051 -6.58244 -4.45642 -2.98689 32.63888 6.35851 4.16969 -25.2543 -6.89104 4.0391 2.77372
-0.00883 -0.00062 0.01027 -83.50455 -28.8739 -2.11636 43.10822 -1.14657 -9.95839 -16.33841 6.09863 -0.40464 -24.1353 -8.3017 -12.95141 31.55602 99.08689 9.53718 1.28476 -26.1497 11.32004 8.13771 40.11858 -109.24208 16.11878 -1.82211 29.99849 -4.29997 -6.03172 -20.41144 -6.55724 -4.43208 -2.97019 32.51205 6.47866 4.48345 -25.21316 -6.88568 4.03113 2.76844
-0.00964 -0.00067 0.01137 -83.65726 -28.89122 -2.15417 43.1636 -1.13306 -9.96557 -16.32447 6.15252 -0.40493 -24.03717 -8.31044 -12.79655 31.59684 98.8694 9.46606 1.27184 -26.42723 11.22761 8.16184 40.06113 -109.33691 16.17534 -1.82949 29.96942 -4.16872 -5.7315 -20.39159 -6.5627 -4.45054 -2.98261 32.44988 6.49615 4.26642 -25.19687 -6.90209 4.06262 2.78944
-0.01046 -0.00073 0.01243 -83.79576 -28.9171 -2.19189 43.20999 -1.12716 -9.99022 -16.30699 6.20667 -0.4052 -23.93546 -8.30312 -12.66463 31.61695 98.73005 9.41246 1.27505 -26.73225 11.14511 8.17508 39.99002 -109.35078 16.19144 -1.82594 29.95762 -4.01189 -5.29656 -20.37547 -6.57865 -4.48358 -3.0049 32.41077 6.47594 3.86156 -25.18918 -6.92649 4.10838 2.81984
-0.01127 -0.00078 0.0135 -83.9412 -28.93905 -2.22844 43.2607 -1.11762 -10.00568 -16.29166 6.25861 -0.40547 -23.8328 -8.28405 -12.59201 31.6467 98.77441 9.40971 1.30438 -27.02497 11.09122 8.10215 39.92255 -109.2624 16.16968 -1.805 29.93807 -3.87116 -4.93674 -20.35812 -6.58885 -4.50856 -3.02166 32.36025 6.47282 3.54952 -25.17702 -6.94736 4.14758 2.84577
-0.01211 -0.00084 0.01459 -84.08544 -28.96116 -2.2704 43.31047 -1.10882 -10.02608 -16.27408 6.32012 -0.40575 -23.73852 -8.33998 -12.2437 31.673 97.95388 9.17437 1.20214 -27.31808 10.90686 8.38826 39.86591 -109.72201 16.36957 -1.87216 29.91822 -3.71139 -4.51889 -20.33891 -6.60307 -4.53946 -3.0427 32.31346 6.46981 3.20439 -25.16734 -6.96798 4.18739 2.8727
-0.01289 -0.00089 0.01564 -84.2277 -28.98501 -2.3007 43.35996 -1.10034 -10.04076 -16.26031 6.36085 -0.40603 -23.62908 -8.24261 -12.45171 31.70465 98.87752 9.40799 1.36573 -27.61545 10.98491 7.95609 39.78348 -109.06975 16.11793 -1.7611 29.90297 -3.58534 -4.18882 -20.32432 -6.61161 -4.56172 -3.05734 32.26466 6.45761 2.88519 -25.15443 -6.99081 4.22899 2.89958
-0.01355 -0.00095 0.01661 -84.37708 -29.01108 -2.30187 43.4121 -1.09043 -10.03196 -16.25841 6.35181 -0.40634 -23.45141 -7.667 -14.39425 31.73239 105.26137 11.10388 2.36462 -27.9301 11.88768 5.26187 39.63375 -104.94012 14.45609 -1.09164 29.89707 -3.55751 -4.14495 -20.32297 -6.60008 -4.55445 -3.05035 32.20241 6.42974 2.67086 -25.13143 -7.01946 4.27458 2.92568
-0.01416 -0.001 0.01755 -84.52294 -29.03874 -2.29073 43.4641 -1.0807 -10.01756 -16.26041 6.32039 -0.40667 -23.26344 -6.94779 -16.86044 31.77229 113.28313 13.24132 3.6123 -28.2458 13.03657 1.89375 39.45894 -99.76751 12.37071 -0.25511 29.895 -3.56469 -4.19233 -20.3259 -6.58281 -4.53836 -3.03686 32.13787 6.39389 2.49132 -25.10473 -7.04972 4.32096 2.95108
-0.01477 -0.00103 0.01848 -84.66483 -29.06596 -2.28325 43.51529 -1.07117 -10.00779 -16.26025 6.2942 -0.407 -23.09836 -6.33399 -18.94973 31.82019 120.10856 15.0612 4.6752 -28.55297 14.00356 -0.97635 39.29461 -95.36072 10.59652 0.45845 29.89059 -3.55661 -4.19053 -20.32598 -6.56937 -4.52767 -3.02739 32.07568 6.36138 2.30452 -25.07904 -7.07816 4.36534 2.97574
